<?xml version="1.0" ?><!DOCTYPE svg  PUBLIC '-//W3C//DTD SVG 1.1//EN'  'http://www.w3.org/Graphics/SVG/1.1/DTD/svg11.dtd'><svg enable-background="new 0 0 50 50" height="50px" version="1.1" viewBox="0 0 50 50" width="50px" xml:space="preserve" xmlns="http://www.w3.org/2000/svg" xmlns:xlink="http://www.w3.org/1999/xlink"><g id="Layer_13"/><g id="Layer_12"/><g id="Layer_11"/><g id="Layer_10"/><g id="Layer_9"/><g id="Layer_8"/><g id="Layer_7"/><g id="Layer_6"/><g id="Layer_5"/><g id="Layer_4"><path clip-rule="evenodd" d="M39.773,15.497c-3.358-0.709-6.71-1.97-9.105-4.087   c-2.018-1.784-3.128-4.358-3.424-7.024c2.78-0.466,5.299,0.367,7.38,2.166C36.901,8.522,38.686,11.637,39.773,15.497    M13.474,32.941c2.265,0.076,4.567,0.5,5.903,2.557c2.4,3.697-0.233,8.961-3.801,10.718c-4.181,2.059-9.321,0.363-11.457-3.779   c-1.518-2.946-1.129-6.596,0.999-9.116C7.63,30.344,10.676,30.581,13.474,32.941z M33.136,48.82   c5.604,2.761,12.456,0.513,15.324-5.053c2.065-4.006,1.545-8.876-1.363-12.324c-2.638-3.125-6.69-4.194-10.337-2.23   c-1.096-3.21-2.414-6.061-3.762-8.976c-0.779-1.683-1.567-3.39-2.325-5.198c4.002,2.591,8.269,3.343,12.861,4.016   c-1.109-5.495-2.519-10.812-7.011-14.696c-2.755-2.384-6.113-3.472-9.838-2.818L26.437,0H23.56   C22.241,8.902,19.564,14.691,17,20.236c-1.347,2.916-2.666,5.767-3.762,8.976c-3.647-1.964-7.699-0.895-10.337,2.23   c-2.887,3.425-3.437,8.301-1.363,12.324c2.868,5.567,9.716,7.815,15.324,5.053c5.193-2.559,8.258-9.804,4.949-14.904   c-1.343-2.067-3.475-3.241-5.856-3.665c1.058-3.12,2.356-5.927,3.683-8.797c1.88-4.067,3.821-8.263,5.282-13.684   c1.452,4.689,3.381,9.232,5.438,13.684c1.328,2.871,2.626,5.678,3.685,8.8c-2.357,0.426-4.488,1.554-5.857,3.662   C24.879,39.018,27.942,46.261,33.136,48.82z M43.711,34.22c-1.661-1.967-3.921-2.133-5.87-0.49l1.656,1.957   c0.853-0.722,1.52-0.684,2.257,0.188c0.644,0.765,1.1,1.849,1.064,2.865l2.559,0.091C45.434,37.183,44.768,35.472,43.711,34.22z    M10.501,35.687l1.656-1.957c-1.924-1.622-4.19-1.5-5.87,0.49c-1.061,1.258-1.725,2.953-1.665,4.611l2.559-0.091   c-0.036-1.017,0.419-2.101,1.064-2.865C8.982,35.002,9.647,34.965,10.501,35.687z M36.523,32.941   c2.998-2.524,6.15-2.587,8.623,0.854c1.879,2.611,2.215,5.761,0.732,8.641c-2.135,4.139-7.282,5.835-11.457,3.779   c-3.568-1.757-6.2-7.021-3.801-10.718C31.955,33.443,34.26,33.017,36.523,32.941z" fill-rule="evenodd"/></g><g id="Layer_3"/><g id="Layer_2"/></svg>