<?xml version="1.0" ?><!DOCTYPE svg  PUBLIC '-//W3C//DTD SVG 1.1//EN'  'http://www.w3.org/Graphics/SVG/1.1/DTD/svg11.dtd'><svg enable-background="new 0 0 50 50" height="50px" id="Capa_1" version="1.1" viewBox="0 0 50 50" width="50px" xml:space="preserve" xmlns="http://www.w3.org/2000/svg" xmlns:xlink="http://www.w3.org/1999/xlink"><g><path d="M19.818,20.024c-0.553,0.004-1.002,0.436-0.999,0.977c0,0.54,0.445,0.979,0.996,0.982c0.547,0,0.996-0.44,1-0.987   C20.812,20.463,20.366,20.024,19.818,20.024z"/><path d="M18.28,24.814c-0.002-0.539-0.447-0.974-1-0.975c-0.549-0.005-0.994,0.436-0.993,0.972   c0.003,0.543,0.448,0.977,0.993,0.982C17.836,25.791,18.283,25.354,18.28,24.814z"/><path d="M18.866,28.896c-0.547-0.006-0.995,0.433-0.999,0.977c0,0.535,0.445,0.975,0.994,0.973c0.552,0,0.997-0.437,1.005-0.977   C19.867,29.329,19.418,28.893,18.866,28.896z"/><path d="M31.275,28.898c-0.547-0.006-0.996,0.435-0.998,0.971c0,0.539,0.443,0.979,0.99,0.98c0.553,0,1.004-0.436,1-0.979   C32.273,29.333,31.825,28.898,31.275,28.898z"/><path d="M24.996,35.945c-0.543-0.002-0.995,0.429-0.998,0.97c0.003,0.536,0.446,0.979,0.994,0.979c0.554,0,1.004-0.438,1.002-0.979   C25.996,36.379,25.548,35.943,24.996,35.945z"/><path d="M24.996,28.402c-0.543-0.004-0.995,0.437-0.996,0.978c0.001,0.536,0.444,0.979,0.996,0.979c0.553,0,1-0.441,1-0.976   C25.999,28.839,25.548,28.398,24.996,28.402z"/><path d="M22.701,25.619c0.005-0.544-0.444-0.983-0.997-0.979c-0.546-0.004-0.996,0.436-0.993,0.971   c0.001,0.543,0.449,0.979,0.999,0.979C22.257,26.59,22.704,26.152,22.701,25.619z"/><path d="M28.173,24.814c-0.548,0.003-1,0.44-1,0.981c0,0.536,0.453,0.979,0.995,0.975c0.553,0.002,1.001-0.439,1.001-0.974   C29.172,25.25,28.725,24.814,28.173,24.814z"/><path d="M22.65,32.21c-0.55,0-0.993,0.442-0.988,0.976c0.004,0.537,0.442,0.978,0.992,0.983c0.554-0.003,1-0.438,0.994-0.983   C23.651,32.65,23.208,32.208,22.65,32.21z"/><path d="M27.364,32.211c-0.548-0.003-0.994,0.441-0.995,0.977c0.007,0.543,0.447,0.979,0.999,0.983   c0.555,0.001,1-0.444,0.995-0.979C28.363,32.65,27.917,32.213,27.364,32.211z"/><path d="M31.214,21.004c-0.002-0.541-0.446-0.977-0.993-0.975c-0.557,0.002-1.002,0.439-1.002,0.977   c-0.003,0.54,0.445,0.978,0.995,0.978C30.768,21.98,31.208,21.546,31.214,21.004z"/><path d="M32.71,23.664c-0.549,0-0.996,0.44-0.998,0.981c0.005,0.538,0.447,0.977,0.998,0.974c0.549-0.003,1.002-0.438,0.999-0.978   C33.712,24.11,33.257,23.664,32.71,23.664z"/><path d="M24.996,21.484c-0.544-0.005-0.995,0.431-0.995,0.97c0.003,0.539,0.451,0.977,0.995,0.979   c0.551-0.002,1.003-0.439,1.005-0.981C25.999,21.915,25.549,21.479,24.996,21.484z"/><path d="M30.333,16.615c-1.187,0.002-1.96,0.114-2.707,0.225c-0.38,0.05-0.748,0.104-1.174,0.146l5.026-1.305   c0.438-0.117,0.705-0.564,0.592-1.014c-0.11-0.443-0.562-0.712-0.993-0.6l-3.882,1.009l2.326-2.903   c0.285-0.356,0.235-0.878-0.113-1.169c-0.352-0.289-0.863-0.237-1.155,0.119l-2.36,2.936l0.006-1.734l-0.004-2.666   c0-0.464-0.363-0.836-0.824-0.835c-0.447,0-0.812,0.368-0.813,0.828l-0.003,2.671l0.003,1.82l-2.426-3.025   c-0.292-0.351-0.806-0.407-1.155-0.115c-0.352,0.288-0.409,0.814-0.118,1.17l2.306,2.878l-3.791-0.985   c-0.437-0.115-0.885,0.155-0.999,0.597c-0.109,0.44,0.155,0.903,0.597,1.014l5.078,1.326c-0.507-0.041-0.936-0.103-1.372-0.163   c-0.748-0.107-1.516-0.225-2.704-0.221c-3.915-0.002-7.1,3.723-7.103,8.309c-0.001,3.909,2.496,6.998,3.438,8.162l0.178,0.215   c1.37,1.741,2.508,3.221,2.651,3.447c0.154,0.259,0.292,0.499,0.437,0.729c1.355,2.291,2.182,3.672,5.719,3.697l0.001-0.002H25   c3.536-0.021,4.361-1.402,5.729-3.689c0.138-0.234,0.279-0.477,0.441-0.731c0.135-0.228,1.275-1.71,2.645-3.44l0.175-0.217   c0.942-1.171,3.44-4.26,3.44-8.167C37.438,20.348,34.247,16.621,30.333,16.615z M32.723,32.029l-0.185,0.236   C31.952,33,30.05,35.434,29.77,35.883c-0.158,0.253-0.306,0.5-0.444,0.739c-1.312,2.21-1.718,2.874-4.332,2.888   c-2.609-0.019-3.011-0.688-4.32-2.888c-0.143-0.24-0.289-0.483-0.447-0.742c-0.273-0.457-2.188-2.886-2.768-3.614l-0.186-0.233   c-0.843-1.044-3.064-3.796-3.063-7.114c0.003-3.666,2.45-6.642,5.467-6.637c1.062-0.005,1.745,0.096,2.468,0.2   c0.773,0.111,1.582,0.23,2.863,0.235c1.283-0.005,2.081-0.119,2.854-0.229c0.719-0.104,1.4-0.207,2.468-0.207   c3.017,0.005,5.466,2.988,5.469,6.647C35.792,28.242,33.566,30.996,32.723,32.029z"/></g></svg>